<svg xmlns="http://www.w3.org/2000/svg" viewBox="0 0 400 225">
  <defs>
    <style>
      .cls-1 {
        fill: #e95c5b;
      }

      .cls-2 {
        fill: #fff;
      }

      .cls-3 {
        fill: #f7cf5c;
      }

      .cls-4 {
        fill: #51bd86;
      }

      .cls-5 {
        fill: none;
      }
    </style>
  </defs>
  <title>impressive-presentation</title>
  <g id="Layer_2" data-name="Layer 2">
    <g id="impressive-presentation">
      <g>
        <polygon id="_Path_" data-name="&lt;Path&gt;" class="cls-1" points="286.83 183.04 221.25 164.4 221.25 91.67 286.83 86.36 286.83 183.04"/>
        <path id="_Path_2" data-name="&lt;Path&gt;" class="cls-2" d="M277,115c0,1.71-.94,3.07-2.19,3l-32.92-1.45c-1,0-1.89-1.3-1.89-2.85v-2c0-1.54.91-2.81,1.95-2.78l32.8.72c1.25,0,2.25,1.41,2.25,3.13Z"/>
        <path id="_Path_3" data-name="&lt;Path&gt;" class="cls-2" d="M277,134.13c0,1.71-.94,3-2.19,2.89l-32.92-3.13c-1-.1-1.89-1.41-1.89-3v-2c0-1.54.91-2.75,1.95-2.68l32.8,2.39c1.25.09,2.25,1.54,2.25,3.26Z"/>
        <path id="_Path_4" data-name="&lt;Path&gt;" class="cls-2" d="M277,153.29c0,1.71-.94,2.95-2.19,2.76l-32.92-4.8c-1-.15-1.89-1.52-1.89-3.07v-2c0-1.54.91-2.7,1.95-2.57l32.8,4.07c1.25.16,2.25,1.67,2.25,3.38Z"/>
        <path id="_Compound_Path_" data-name="&lt;Compound Path&gt;" class="cls-2" d="M233.59,107.41a2.94,2.94,0,0,0-2.55,1.9,5.89,5.89,0,0,0-.43,1.23q-.05.22-.09.45a7.34,7.34,0,0,0-.1,1.21c0,2.68,1.41,4.92,3.17,5a2.21,2.21,0,0,0,1.25-.33,5.18,5.18,0,0,0,2-4.47C236.83,109.69,235.37,107.45,233.59,107.41Zm0,7.51c-.94,0-1.7-1.24-1.7-2.67s.76-2.58,1.7-2.55,1.72,1.22,1.72,2.67S234.54,115,233.59,114.92Z"/>
        <path id="_Path_5" data-name="&lt;Path&gt;" class="cls-2" d="M236.83,129.52c0-2.73-1.46-5-3.23-5.17s-3.17,2-3.17,4.63,1.41,5,3.17,5.17S236.83,132.26,236.83,129.52Z"/>
        <path id="_Compound_Path_2" data-name="&lt;Compound Path&gt;" class="cls-2" d="M234.85,141.82a2.57,2.57,0,0,0-1.25-.54c-1.76-.21-3.17,1.79-3.17,4.47s1.41,5.07,3.17,5.33a2.08,2.08,0,0,0,1.25-.2c1.16-.58,2-2.22,2-4.27A6.17,6.17,0,0,0,234.85,141.82Zm-1.25,7c-.94-.13-1.7-1.41-1.7-2.84s.76-2.5,1.7-2.38,1.72,1.39,1.72,2.84S234.54,148.93,233.59,148.8Z"/>
        <polygon id="_Path_6" data-name="&lt;Path&gt;" class="cls-3" points="237.43 117.4 172.69 111.81 172.69 39.44 237.43 21.97 237.43 117.4"/>
        <g id="_Group_" data-name="&lt;Group&gt;">
          <path id="_Compound_Path_3" data-name="&lt;Compound Path&gt;" class="cls-2" d="M225.21,96.53c0,3.41-1.85,6.19-4.08,6.18l-35.63-.09c-1.72,0-3.11-2.41-3.11-5.35V56.66c0-2.94,1.39-5.6,3.11-5.93L221.13,44c2.23-.42,4.08,2,4.08,5.43ZM185.5,55.06c-.33.06-.63.61-.63,1.19v41c0,.57.29,1.07.63,1.07l35.63-.47c.43,0,.81-.59.81-1.24V50c0-.65-.38-1.16-.81-1.09Zm5.79,16.66c-2.16.23-3.89-2.5-3.89-6.11s1.73-6.8,3.89-7.14,4,2.38,4,6.09S193.49,71.48,191.29,71.72ZM218.73,93l-31.32.91V87.38l6.54-11.49,3.39,5.33,11.42-19.61,10,14.41Z"/>
        </g>
        <polygon id="_Path_7" data-name="&lt;Path&gt;" class="cls-4" points="202.6 198.29 121.17 177.99 121.17 92.85 202.6 80.85 202.6 198.29"/>
        <g>
          <path class="cls-2" d="M145.17,146.47v-12c0-9-2.14-13.82-6.2-13.85h0a6.32,6.32,0,0,0-5.09,3l-.15.21.85,5.53.92-1.29a4,4,0,0,1,3.11-1.93c2.31.06,2.65,4.28,2.66,6.8a7.49,7.49,0,0,0-5.38,1.91c-2.06,1.92-3.11,5.16-3.11,9.65,0,4.66,1.48,9.58,4.79,10.08,1.55.23,3-.61,4.07-2.3l.12,2.2,3.78.55-.07-.81C145.26,152.19,145.17,149.68,145.17,146.47Zm-3.89-8.33v4.94a11.78,11.78,0,0,1-.14,1.72c-.37,2.29-1.37,4.51-2.77,4.33-.89-.12-1.85-1.75-1.85-5.06,0-2.42.53-4.11,1.58-5a4,4,0,0,1,2.75-.9Z"/>
          <path class="cls-2" d="M157.47,120.75c-2,0-3.74,1.19-5,3.47V105.94l-4.11.21v40.23c0,2.94-.07,6.28-.13,8.43l0,.57,3.75.55.07-2.87c1.19,2.61,2.8,4,4.87,4.36a4.15,4.15,0,0,0,.61,0,4.69,4.69,0,0,0,3.07-1.24c3-2.59,4.72-8.77,4.72-17C165.36,128.41,162.13,120.79,157.47,120.75Zm3.41,18.48c0,5.63-1,9.89-2.73,11.4a2,2,0,0,1-1.66.55c-1.78-.23-3.34-3.08-3.87-7.06-.07-.69-.13-1.42-.13-2.15v-6a20,20,0,0,1,.13-2.09l0-.29c.6-4.63,2.38-6.72,3.8-6.72h0C159,127,160.87,132.17,160.87,139.23Z"/>
          <path class="cls-2" d="M181.45,152.68a5.33,5.33,0,0,1-4,1.16c-3.54-.46-6-6-6-13.58,0-5.27,1.19-9.57,3.19-11.51a3.8,3.8,0,0,1,2.85-1.17,5.09,5.09,0,0,1,3.7,1.68l.9,1,1.09-6.86-.25-.23a8.42,8.42,0,0,0-5.42-2.15,7.8,7.8,0,0,0-5.64,2.4c-3.21,3.19-5.06,9.34-5.06,16.88,0,11.27,3.86,19.13,9.83,20a9,9,0,0,0,1.34.1,7.82,7.82,0,0,0,4.83-1.55l.27-.22-.79-6.57Z"/>
        </g>
      </g>
      <rect class="cls-5" width="400" height="225"/>
    </g>
  </g>
</svg>
